# xmcd CD database file
#
# Track frame offsets:
#	150
#	10032
#	21489
#	32683
#	46944
#	61696
#	76821
#	86596
#	101147
#	129319
#	145363
#	159284
#	191793
#
# Disc length: 2725 seconds
#
# Revision: 0
# Processed by: cddbd v1.5.2PL0 Copyright (c) Steve Scherf et al.
# Submitted via: CDex 1.51
#
DISCID=9e0aa30d
DTITLE=Uklele Orchestra of Great Britain - The Secret of Life
DYEAR=1900
DGENRE=New Age
TTITLE0=Antiphon
TTITLE1=Only You
TTITLE2=Hard to Handle
TTITLE3=Miss Dy-na-mi-tee
TTITLE4=Leaning on a Lampost
TTITLE5=The Stage
TTITLE6=Wonderful Land
TTITLE7=You Talk About My Drinking
TTITLE8=MacArthur Park
TTITLE9=Le Freak
TTITLE10=Je T'aime ...Moi Non Plus
TTITLE11=The Secret of Life
TTITLE12=Should I stay or Should I go
EXTD=
EXTT0=
EXTT1=
EXTT2=
EXTT3=
EXTT4=
EXTT5=
EXTT6=
EXTT7=
EXTT8=
EXTT9=
EXTT10=
EXTT11=
EXTT12=
PLAYORDER=
